<svg xmlns="http://www.w3.org/2000/svg" viewBox="0 0 283.5 249.2"><path d="M8.2 180.7h6.5v26.2h.2c1.2-2.5 4.7-8.5 12.1-8.5 9.9 0 15.2 8.7 15.2 22 0 14.5-6.7 21.5-17.6 21.5-16.3 0-16.3-14.3-16.3-20.9v-40.3zm26.7 40.2c0-8-1.9-18.3-9.6-18.3-8 0-10.6 11.4-10.6 19s1.5 16.2 9.8 16.2c8.1 0 10.4-8.5 10.4-16.9M72.3 241v-5.8h-.2c-2.5 4.2-7.1 6.8-12 6.8-6.7 0-11.3-4.9-11.3-10.5 0-12.2 15.6-12.8 23.4-13.3v-5.5c0-4.5-.5-10.7-7.4-10.7-6.6 0-7.1 5.2-7.3 8.3H50c.5-5.1 3-11.8 15.2-11.8s13.6 8 13.6 13.9V241h-6.5zm0-19.3c-2.3.2-16.4 0-16.4 8.9 0 4.5 2.8 7 6.6 7 5.2 0 9.9-4.9 9.9-11.4l-.1-4.5zm16.4-41h6.5V241h-6.5zm45.9 59.8c-3 1-6.2 1.5-9.4 1.5-15.6 0-20.8-10.1-20.8-23.1 0-13.6 6.7-20.5 17-20.5 10.2 0 14.3 6.3 14.3 13.8h-7.5c0-3.3 0-10.3-7.3-10.3s-9.3 8.5-9.3 15.4c0 8.9 3.8 20.5 15.8 20.5 2.4 0 4.8-.4 7.1-1.1l.1 3.8zm8.2-19.8c0-13.3 5.2-22.2 17.7-22.2 12.4 0 18.1 8.9 18.1 22.2 0 13.5-5.7 21.3-18.1 21.3s-17.7-7.9-17.7-21.3m28.6.2c0-9.1-1.9-19-10.8-19-9 0-10.4 9.9-10.4 19 0 8.6 1.5 17.6 10.4 17.6s10.8-9 10.8-17.6m41 20.1v-26.9c0-4.5 0-10.4-5.8-10.4-8.8 0-12.7 11.4-12.7 19.4V241h-6.5v-41.6h6.3v10.2h.2c2.5-5.3 6.7-11.2 14.9-11.2 7.3 0 10 6.3 10 10.9V241h-6.4zm16.2-60.3h7.3v7.9h-7.3v-7.9zm.5 18.7h6.5V241h-6.5v-41.6zm39.7 41.6v-5.8h-.2c-2.5 4.2-7.1 6.8-12 6.8-6.7 0-11.3-4.9-11.3-10.5 0-12.2 15.7-12.8 23.4-13.3v-5.5c0-4.5-.5-10.7-7.4-10.7-6.6 0-7.1 5.2-7.3 8.3h-7.5c.4-5.1 3-11.8 15.1-11.8s13.6 8 13.6 13.9V241h-6.4zm0-19.3c-2.3.2-16.4 0-16.4 8.9 0 4.5 2.8 7 6.6 7 5.2 0 9.9-4.9 9.9-11.4l-.1-4.5z" fill="#4c4948"/><path d="M91.9 110.2c-11.8-10.1-23.9-25-30.1-34.6-.7-1-1.9-1.7-3.1-1.6-2 .1-3.6 1.7-3.6 3.8-.2 25.3 10.6 44.9 19.1 54.5 14 15.8 31.2 19.3 47.6 12.6 25.4 9.3 68 10.2 92.6-36.7 13.9-26.4 18.4-65.7 9.7-98.2-.3-1.2-1.3-2.2-2.5-2.7-2-.6-4.1.4-4.7 2.4-8.6 25.2-20.3 49.2-35 71.4-10.9 16.2-27.7 37.1-49.7 51.4-16.9-4.4-28.7-12.2-40.3-22.3zM79.2 128c-9.1-10.5-13.9-24.8-15.6-35 6 9.1 12.9 17.6 20.4 25.4 7.9 8 17 16.1 29.5 22.7-10.9 2.5-23.2-.2-34.3-13.1zm125.2-25.1c-19.9 34.7-48.6 35.1-64.5 31.7 16.6-11.6 31.6-26.9 47.4-49.5C202.4 63.5 215 35.7 219 25.5c1.8 19 1 50.1-14.6 77.4z" fill="#0081a2"/></svg>